<mxfile host="app.diagrams.net" modified="2023-04-27T03:46:42.727Z" agent="Mozilla/5.0 (Windows NT 10.0; Win64; x64) AppleWebKit/537.36 (KHTML, like Gecko) Chrome/112.0.0.0 Safari/537.36" etag="sedpVMHyW-a9BcP7V1E9" version="21.2.3" type="device">
  <diagram name="Page-1" id="h79NAxdaCG8WDMMNOav_">
    <mxGraphModel dx="2284" dy="788" grid="1" gridSize="10" guides="1" tooltips="1" connect="1" arrows="1" fold="1" page="1" pageScale="1" pageWidth="850" pageHeight="1100" math="0" shadow="0">
      <root>
        <mxCell id="0" />
        <mxCell id="1" parent="0" />
        <mxCell id="Hg2dmBB14RRElqbrXrDV-1" value="StartApplication" style="swimlane;fontStyle=1;align=center;verticalAlign=top;childLayout=stackLayout;horizontal=1;startSize=26;horizontalStack=0;resizeParent=1;resizeParentMax=0;resizeLast=0;collapsible=1;marginBottom=0;whiteSpace=wrap;html=1;" vertex="1" parent="1">
          <mxGeometry x="-100" y="124" width="130" height="86" as="geometry" />
        </mxCell>
        <mxCell id="Hg2dmBB14RRElqbrXrDV-2" value="&amp;nbsp;&amp;nbsp;" style="text;strokeColor=none;fillColor=none;align=left;verticalAlign=top;spacingLeft=4;spacingRight=4;overflow=hidden;rotatable=0;points=[[0,0.5],[1,0.5]];portConstraint=eastwest;whiteSpace=wrap;html=1;" vertex="1" parent="Hg2dmBB14RRElqbrXrDV-1">
          <mxGeometry y="26" width="130" height="26" as="geometry" />
        </mxCell>
        <mxCell id="Hg2dmBB14RRElqbrXrDV-3" value="" style="line;strokeWidth=1;fillColor=none;align=left;verticalAlign=middle;spacingTop=-1;spacingLeft=3;spacingRight=3;rotatable=0;labelPosition=right;points=[];portConstraint=eastwest;strokeColor=inherit;" vertex="1" parent="Hg2dmBB14RRElqbrXrDV-1">
          <mxGeometry y="52" width="130" height="8" as="geometry" />
        </mxCell>
        <mxCell id="Hg2dmBB14RRElqbrXrDV-4" value="&amp;nbsp;&amp;nbsp;" style="text;strokeColor=none;fillColor=none;align=left;verticalAlign=top;spacingLeft=4;spacingRight=4;overflow=hidden;rotatable=0;points=[[0,0.5],[1,0.5]];portConstraint=eastwest;whiteSpace=wrap;html=1;" vertex="1" parent="Hg2dmBB14RRElqbrXrDV-1">
          <mxGeometry y="60" width="130" height="26" as="geometry" />
        </mxCell>
        <mxCell id="Hg2dmBB14RRElqbrXrDV-5" value="StockController" style="swimlane;fontStyle=1;align=center;verticalAlign=top;childLayout=stackLayout;horizontal=1;startSize=26;horizontalStack=0;resizeParent=1;resizeParentMax=0;resizeLast=0;collapsible=1;marginBottom=0;whiteSpace=wrap;html=1;" vertex="1" parent="1">
          <mxGeometry x="190" y="425" width="130" height="86" as="geometry" />
        </mxCell>
        <mxCell id="Hg2dmBB14RRElqbrXrDV-6" value="&amp;nbsp;&amp;nbsp;" style="text;strokeColor=none;fillColor=none;align=left;verticalAlign=top;spacingLeft=4;spacingRight=4;overflow=hidden;rotatable=0;points=[[0,0.5],[1,0.5]];portConstraint=eastwest;whiteSpace=wrap;html=1;" vertex="1" parent="Hg2dmBB14RRElqbrXrDV-5">
          <mxGeometry y="26" width="130" height="26" as="geometry" />
        </mxCell>
        <mxCell id="Hg2dmBB14RRElqbrXrDV-7" value="" style="line;strokeWidth=1;fillColor=none;align=left;verticalAlign=middle;spacingTop=-1;spacingLeft=3;spacingRight=3;rotatable=0;labelPosition=right;points=[];portConstraint=eastwest;strokeColor=inherit;" vertex="1" parent="Hg2dmBB14RRElqbrXrDV-5">
          <mxGeometry y="52" width="130" height="8" as="geometry" />
        </mxCell>
        <mxCell id="Hg2dmBB14RRElqbrXrDV-8" value="&amp;nbsp;&amp;nbsp;" style="text;strokeColor=none;fillColor=none;align=left;verticalAlign=top;spacingLeft=4;spacingRight=4;overflow=hidden;rotatable=0;points=[[0,0.5],[1,0.5]];portConstraint=eastwest;whiteSpace=wrap;html=1;" vertex="1" parent="Hg2dmBB14RRElqbrXrDV-5">
          <mxGeometry y="60" width="130" height="26" as="geometry" />
        </mxCell>
        <mxCell id="Hg2dmBB14RRElqbrXrDV-9" value="ProductController&lt;br&gt;" style="swimlane;fontStyle=1;align=center;verticalAlign=top;childLayout=stackLayout;horizontal=1;startSize=26;horizontalStack=0;resizeParent=1;resizeParentMax=0;resizeLast=0;collapsible=1;marginBottom=0;whiteSpace=wrap;html=1;" vertex="1" parent="1">
          <mxGeometry x="193" y="260" width="130" height="86" as="geometry" />
        </mxCell>
        <mxCell id="Hg2dmBB14RRElqbrXrDV-10" value="&amp;nbsp;&amp;nbsp;" style="text;strokeColor=none;fillColor=none;align=left;verticalAlign=top;spacingLeft=4;spacingRight=4;overflow=hidden;rotatable=0;points=[[0,0.5],[1,0.5]];portConstraint=eastwest;whiteSpace=wrap;html=1;" vertex="1" parent="Hg2dmBB14RRElqbrXrDV-9">
          <mxGeometry y="26" width="130" height="26" as="geometry" />
        </mxCell>
        <mxCell id="Hg2dmBB14RRElqbrXrDV-11" value="" style="line;strokeWidth=1;fillColor=none;align=left;verticalAlign=middle;spacingTop=-1;spacingLeft=3;spacingRight=3;rotatable=0;labelPosition=right;points=[];portConstraint=eastwest;strokeColor=inherit;" vertex="1" parent="Hg2dmBB14RRElqbrXrDV-9">
          <mxGeometry y="52" width="130" height="8" as="geometry" />
        </mxCell>
        <mxCell id="Hg2dmBB14RRElqbrXrDV-12" value="&amp;nbsp;&amp;nbsp;" style="text;strokeColor=none;fillColor=none;align=left;verticalAlign=top;spacingLeft=4;spacingRight=4;overflow=hidden;rotatable=0;points=[[0,0.5],[1,0.5]];portConstraint=eastwest;whiteSpace=wrap;html=1;" vertex="1" parent="Hg2dmBB14RRElqbrXrDV-9">
          <mxGeometry y="60" width="130" height="26" as="geometry" />
        </mxCell>
        <mxCell id="Hg2dmBB14RRElqbrXrDV-13" value="ProviderController" style="swimlane;fontStyle=1;align=center;verticalAlign=top;childLayout=stackLayout;horizontal=1;startSize=26;horizontalStack=0;resizeParent=1;resizeParentMax=0;resizeLast=0;collapsible=1;marginBottom=0;whiteSpace=wrap;html=1;" vertex="1" parent="1">
          <mxGeometry x="190" y="605" width="130" height="86" as="geometry" />
        </mxCell>
        <mxCell id="Hg2dmBB14RRElqbrXrDV-14" value="&amp;nbsp;&amp;nbsp;" style="text;strokeColor=none;fillColor=none;align=left;verticalAlign=top;spacingLeft=4;spacingRight=4;overflow=hidden;rotatable=0;points=[[0,0.5],[1,0.5]];portConstraint=eastwest;whiteSpace=wrap;html=1;" vertex="1" parent="Hg2dmBB14RRElqbrXrDV-13">
          <mxGeometry y="26" width="130" height="26" as="geometry" />
        </mxCell>
        <mxCell id="Hg2dmBB14RRElqbrXrDV-15" value="" style="line;strokeWidth=1;fillColor=none;align=left;verticalAlign=middle;spacingTop=-1;spacingLeft=3;spacingRight=3;rotatable=0;labelPosition=right;points=[];portConstraint=eastwest;strokeColor=inherit;" vertex="1" parent="Hg2dmBB14RRElqbrXrDV-13">
          <mxGeometry y="52" width="130" height="8" as="geometry" />
        </mxCell>
        <mxCell id="Hg2dmBB14RRElqbrXrDV-16" value="&amp;nbsp;&amp;nbsp;" style="text;strokeColor=none;fillColor=none;align=left;verticalAlign=top;spacingLeft=4;spacingRight=4;overflow=hidden;rotatable=0;points=[[0,0.5],[1,0.5]];portConstraint=eastwest;whiteSpace=wrap;html=1;" vertex="1" parent="Hg2dmBB14RRElqbrXrDV-13">
          <mxGeometry y="60" width="130" height="26" as="geometry" />
        </mxCell>
        <mxCell id="Hg2dmBB14RRElqbrXrDV-17" value="Product" style="swimlane;fontStyle=1;align=center;verticalAlign=top;childLayout=stackLayout;horizontal=1;startSize=26;horizontalStack=0;resizeParent=1;resizeParentMax=0;resizeLast=0;collapsible=1;marginBottom=0;whiteSpace=wrap;html=1;" vertex="1" parent="1">
          <mxGeometry x="520" y="320" width="160" height="86" as="geometry" />
        </mxCell>
        <mxCell id="Hg2dmBB14RRElqbrXrDV-18" value="&amp;nbsp;&amp;nbsp;" style="text;strokeColor=none;fillColor=none;align=left;verticalAlign=top;spacingLeft=4;spacingRight=4;overflow=hidden;rotatable=0;points=[[0,0.5],[1,0.5]];portConstraint=eastwest;whiteSpace=wrap;html=1;" vertex="1" parent="Hg2dmBB14RRElqbrXrDV-17">
          <mxGeometry y="26" width="160" height="26" as="geometry" />
        </mxCell>
        <mxCell id="Hg2dmBB14RRElqbrXrDV-19" value="" style="line;strokeWidth=1;fillColor=none;align=left;verticalAlign=middle;spacingTop=-1;spacingLeft=3;spacingRight=3;rotatable=0;labelPosition=right;points=[];portConstraint=eastwest;strokeColor=inherit;" vertex="1" parent="Hg2dmBB14RRElqbrXrDV-17">
          <mxGeometry y="52" width="160" height="8" as="geometry" />
        </mxCell>
        <mxCell id="Hg2dmBB14RRElqbrXrDV-20" value="&amp;nbsp;&amp;nbsp;" style="text;strokeColor=none;fillColor=none;align=left;verticalAlign=top;spacingLeft=4;spacingRight=4;overflow=hidden;rotatable=0;points=[[0,0.5],[1,0.5]];portConstraint=eastwest;whiteSpace=wrap;html=1;" vertex="1" parent="Hg2dmBB14RRElqbrXrDV-17">
          <mxGeometry y="60" width="160" height="26" as="geometry" />
        </mxCell>
        <mxCell id="Hg2dmBB14RRElqbrXrDV-21" value="Provider" style="swimlane;fontStyle=1;align=center;verticalAlign=top;childLayout=stackLayout;horizontal=1;startSize=26;horizontalStack=0;resizeParent=1;resizeParentMax=0;resizeLast=0;collapsible=1;marginBottom=0;whiteSpace=wrap;html=1;" vertex="1" parent="1">
          <mxGeometry x="520" y="543" width="160" height="86" as="geometry" />
        </mxCell>
        <mxCell id="Hg2dmBB14RRElqbrXrDV-22" value="&amp;nbsp;&amp;nbsp;" style="text;strokeColor=none;fillColor=none;align=left;verticalAlign=top;spacingLeft=4;spacingRight=4;overflow=hidden;rotatable=0;points=[[0,0.5],[1,0.5]];portConstraint=eastwest;whiteSpace=wrap;html=1;" vertex="1" parent="Hg2dmBB14RRElqbrXrDV-21">
          <mxGeometry y="26" width="160" height="26" as="geometry" />
        </mxCell>
        <mxCell id="Hg2dmBB14RRElqbrXrDV-23" value="" style="line;strokeWidth=1;fillColor=none;align=left;verticalAlign=middle;spacingTop=-1;spacingLeft=3;spacingRight=3;rotatable=0;labelPosition=right;points=[];portConstraint=eastwest;strokeColor=inherit;" vertex="1" parent="Hg2dmBB14RRElqbrXrDV-21">
          <mxGeometry y="52" width="160" height="8" as="geometry" />
        </mxCell>
        <mxCell id="Hg2dmBB14RRElqbrXrDV-24" value="&amp;nbsp;&amp;nbsp;" style="text;strokeColor=none;fillColor=none;align=left;verticalAlign=top;spacingLeft=4;spacingRight=4;overflow=hidden;rotatable=0;points=[[0,0.5],[1,0.5]];portConstraint=eastwest;whiteSpace=wrap;html=1;" vertex="1" parent="Hg2dmBB14RRElqbrXrDV-21">
          <mxGeometry y="60" width="160" height="26" as="geometry" />
        </mxCell>
        <mxCell id="Hg2dmBB14RRElqbrXrDV-25" value="Stock" style="swimlane;fontStyle=1;align=center;verticalAlign=top;childLayout=stackLayout;horizontal=1;startSize=26;horizontalStack=0;resizeParent=1;resizeParentMax=0;resizeLast=0;collapsible=1;marginBottom=0;whiteSpace=wrap;html=1;" vertex="1" parent="1">
          <mxGeometry x="520" y="430" width="160" height="86" as="geometry" />
        </mxCell>
        <mxCell id="Hg2dmBB14RRElqbrXrDV-26" value="&amp;nbsp;&amp;nbsp;" style="text;strokeColor=none;fillColor=none;align=left;verticalAlign=top;spacingLeft=4;spacingRight=4;overflow=hidden;rotatable=0;points=[[0,0.5],[1,0.5]];portConstraint=eastwest;whiteSpace=wrap;html=1;" vertex="1" parent="Hg2dmBB14RRElqbrXrDV-25">
          <mxGeometry y="26" width="160" height="26" as="geometry" />
        </mxCell>
        <mxCell id="Hg2dmBB14RRElqbrXrDV-27" value="" style="line;strokeWidth=1;fillColor=none;align=left;verticalAlign=middle;spacingTop=-1;spacingLeft=3;spacingRight=3;rotatable=0;labelPosition=right;points=[];portConstraint=eastwest;strokeColor=inherit;" vertex="1" parent="Hg2dmBB14RRElqbrXrDV-25">
          <mxGeometry y="52" width="160" height="8" as="geometry" />
        </mxCell>
        <mxCell id="Hg2dmBB14RRElqbrXrDV-28" value="&amp;nbsp;&amp;nbsp;" style="text;strokeColor=none;fillColor=none;align=left;verticalAlign=top;spacingLeft=4;spacingRight=4;overflow=hidden;rotatable=0;points=[[0,0.5],[1,0.5]];portConstraint=eastwest;whiteSpace=wrap;html=1;" vertex="1" parent="Hg2dmBB14RRElqbrXrDV-25">
          <mxGeometry y="60" width="160" height="26" as="geometry" />
        </mxCell>
        <mxCell id="Hg2dmBB14RRElqbrXrDV-29" value="ProductForm" style="swimlane;fontStyle=1;align=center;verticalAlign=top;childLayout=stackLayout;horizontal=1;startSize=26;horizontalStack=0;resizeParent=1;resizeParentMax=0;resizeLast=0;collapsible=1;marginBottom=0;whiteSpace=wrap;html=1;" vertex="1" parent="1">
          <mxGeometry x="-120" y="308" width="120" height="86" as="geometry" />
        </mxCell>
        <mxCell id="Hg2dmBB14RRElqbrXrDV-30" value="&amp;nbsp;&amp;nbsp;" style="text;strokeColor=none;fillColor=none;align=left;verticalAlign=top;spacingLeft=4;spacingRight=4;overflow=hidden;rotatable=0;points=[[0,0.5],[1,0.5]];portConstraint=eastwest;whiteSpace=wrap;html=1;" vertex="1" parent="Hg2dmBB14RRElqbrXrDV-29">
          <mxGeometry y="26" width="120" height="26" as="geometry" />
        </mxCell>
        <mxCell id="Hg2dmBB14RRElqbrXrDV-31" value="" style="line;strokeWidth=1;fillColor=none;align=left;verticalAlign=middle;spacingTop=-1;spacingLeft=3;spacingRight=3;rotatable=0;labelPosition=right;points=[];portConstraint=eastwest;strokeColor=inherit;" vertex="1" parent="Hg2dmBB14RRElqbrXrDV-29">
          <mxGeometry y="52" width="120" height="8" as="geometry" />
        </mxCell>
        <mxCell id="Hg2dmBB14RRElqbrXrDV-32" value="&amp;nbsp;&amp;nbsp;" style="text;strokeColor=none;fillColor=none;align=left;verticalAlign=top;spacingLeft=4;spacingRight=4;overflow=hidden;rotatable=0;points=[[0,0.5],[1,0.5]];portConstraint=eastwest;whiteSpace=wrap;html=1;" vertex="1" parent="Hg2dmBB14RRElqbrXrDV-29">
          <mxGeometry y="60" width="120" height="26" as="geometry" />
        </mxCell>
        <mxCell id="Hg2dmBB14RRElqbrXrDV-33" value="ProviderForm" style="swimlane;fontStyle=1;align=center;verticalAlign=top;childLayout=stackLayout;horizontal=1;startSize=26;horizontalStack=0;resizeParent=1;resizeParentMax=0;resizeLast=0;collapsible=1;marginBottom=0;whiteSpace=wrap;html=1;" vertex="1" parent="1">
          <mxGeometry x="-121" y="543" width="120" height="86" as="geometry" />
        </mxCell>
        <mxCell id="Hg2dmBB14RRElqbrXrDV-34" value="&amp;nbsp; &amp;nbsp;&amp;nbsp;" style="text;strokeColor=none;fillColor=none;align=left;verticalAlign=top;spacingLeft=4;spacingRight=4;overflow=hidden;rotatable=0;points=[[0,0.5],[1,0.5]];portConstraint=eastwest;whiteSpace=wrap;html=1;" vertex="1" parent="Hg2dmBB14RRElqbrXrDV-33">
          <mxGeometry y="26" width="120" height="26" as="geometry" />
        </mxCell>
        <mxCell id="Hg2dmBB14RRElqbrXrDV-35" value="" style="line;strokeWidth=1;fillColor=none;align=left;verticalAlign=middle;spacingTop=-1;spacingLeft=3;spacingRight=3;rotatable=0;labelPosition=right;points=[];portConstraint=eastwest;strokeColor=inherit;" vertex="1" parent="Hg2dmBB14RRElqbrXrDV-33">
          <mxGeometry y="52" width="120" height="8" as="geometry" />
        </mxCell>
        <mxCell id="Hg2dmBB14RRElqbrXrDV-36" value="&amp;nbsp; &amp;nbsp;" style="text;strokeColor=none;fillColor=none;align=left;verticalAlign=top;spacingLeft=4;spacingRight=4;overflow=hidden;rotatable=0;points=[[0,0.5],[1,0.5]];portConstraint=eastwest;whiteSpace=wrap;html=1;" vertex="1" parent="Hg2dmBB14RRElqbrXrDV-33">
          <mxGeometry y="60" width="120" height="26" as="geometry" />
        </mxCell>
        <mxCell id="Hg2dmBB14RRElqbrXrDV-37" value="StockWindow" style="swimlane;fontStyle=1;align=center;verticalAlign=top;childLayout=stackLayout;horizontal=1;startSize=26;horizontalStack=0;resizeParent=1;resizeParentMax=0;resizeLast=0;collapsible=1;marginBottom=0;whiteSpace=wrap;html=1;" vertex="1" parent="1">
          <mxGeometry x="-121" y="425" width="120" height="86" as="geometry" />
        </mxCell>
        <mxCell id="Hg2dmBB14RRElqbrXrDV-38" value="&amp;nbsp; &amp;nbsp;" style="text;strokeColor=none;fillColor=none;align=left;verticalAlign=top;spacingLeft=4;spacingRight=4;overflow=hidden;rotatable=0;points=[[0,0.5],[1,0.5]];portConstraint=eastwest;whiteSpace=wrap;html=1;" vertex="1" parent="Hg2dmBB14RRElqbrXrDV-37">
          <mxGeometry y="26" width="120" height="26" as="geometry" />
        </mxCell>
        <mxCell id="Hg2dmBB14RRElqbrXrDV-39" value="" style="line;strokeWidth=1;fillColor=none;align=left;verticalAlign=middle;spacingTop=-1;spacingLeft=3;spacingRight=3;rotatable=0;labelPosition=right;points=[];portConstraint=eastwest;strokeColor=inherit;" vertex="1" parent="Hg2dmBB14RRElqbrXrDV-37">
          <mxGeometry y="52" width="120" height="8" as="geometry" />
        </mxCell>
        <mxCell id="Hg2dmBB14RRElqbrXrDV-40" value="&amp;nbsp; &amp;nbsp;" style="text;strokeColor=none;fillColor=none;align=left;verticalAlign=top;spacingLeft=4;spacingRight=4;overflow=hidden;rotatable=0;points=[[0,0.5],[1,0.5]];portConstraint=eastwest;whiteSpace=wrap;html=1;" vertex="1" parent="Hg2dmBB14RRElqbrXrDV-37">
          <mxGeometry y="60" width="120" height="26" as="geometry" />
        </mxCell>
        <mxCell id="Hg2dmBB14RRElqbrXrDV-42" value="View" style="shape=umlFrame;whiteSpace=wrap;html=1;pointerEvents=0;fillColor=default;strokeColor=default;" vertex="1" parent="1">
          <mxGeometry x="-211" y="268" width="270" height="410" as="geometry" />
        </mxCell>
        <mxCell id="Hg2dmBB14RRElqbrXrDV-43" value="Controller" style="shape=umlFrame;whiteSpace=wrap;html=1;pointerEvents=0;" vertex="1" parent="1">
          <mxGeometry x="110" y="200" width="310" height="540" as="geometry" />
        </mxCell>
        <mxCell id="Hg2dmBB14RRElqbrXrDV-45" value="Model" style="shape=umlFrame;whiteSpace=wrap;html=1;pointerEvents=0;" vertex="1" parent="1">
          <mxGeometry x="460" y="250" width="280" height="428" as="geometry" />
        </mxCell>
        <mxCell id="Hg2dmBB14RRElqbrXrDV-51" value="Use" style="endArrow=open;endSize=12;dashed=1;html=1;rounded=0;exitX=1;exitY=0.769;exitDx=0;exitDy=0;exitPerimeter=0;" edge="1" parent="1" source="Hg2dmBB14RRElqbrXrDV-2" target="Hg2dmBB14RRElqbrXrDV-5">
          <mxGeometry width="160" relative="1" as="geometry">
            <mxPoint x="69" y="188" as="sourcePoint" />
            <mxPoint x="229" y="188" as="targetPoint" />
            <Array as="points" />
          </mxGeometry>
        </mxCell>
        <mxCell id="Hg2dmBB14RRElqbrXrDV-57" value="1" style="endArrow=open;html=1;endSize=12;startArrow=diamondThin;startSize=14;startFill=1;align=left;verticalAlign=bottom;rounded=0;entryX=0;entryY=0.5;entryDx=0;entryDy=0;exitX=1;exitY=0.5;exitDx=0;exitDy=0;" edge="1" parent="1" source="Hg2dmBB14RRElqbrXrDV-6" target="Hg2dmBB14RRElqbrXrDV-26">
          <mxGeometry x="-1" y="3" relative="1" as="geometry">
            <mxPoint x="299" y="438" as="sourcePoint" />
            <mxPoint x="459" y="438" as="targetPoint" />
          </mxGeometry>
        </mxCell>
        <mxCell id="Hg2dmBB14RRElqbrXrDV-59" value="1" style="endArrow=open;html=1;endSize=12;startArrow=diamondThin;startSize=14;startFill=1;align=left;verticalAlign=bottom;rounded=0;entryX=0;entryY=0.5;entryDx=0;entryDy=0;exitX=1;exitY=0.5;exitDx=0;exitDy=0;" edge="1" parent="1" source="Hg2dmBB14RRElqbrXrDV-14" target="Hg2dmBB14RRElqbrXrDV-22">
          <mxGeometry x="-1" y="3" relative="1" as="geometry">
            <mxPoint x="329" y="586" as="sourcePoint" />
            <mxPoint x="499" y="598" as="targetPoint" />
          </mxGeometry>
        </mxCell>
        <mxCell id="Hg2dmBB14RRElqbrXrDV-58" value="1" style="endArrow=open;html=1;endSize=12;startArrow=diamondThin;startSize=14;startFill=1;align=left;verticalAlign=bottom;rounded=0;entryX=0;entryY=0.5;entryDx=0;entryDy=0;exitX=1;exitY=0.5;exitDx=0;exitDy=0;" edge="1" parent="1" source="Hg2dmBB14RRElqbrXrDV-10" target="Hg2dmBB14RRElqbrXrDV-18">
          <mxGeometry x="-1" y="3" relative="1" as="geometry">
            <mxPoint x="325" y="467.5" as="sourcePoint" />
            <mxPoint x="500" y="470" as="targetPoint" />
          </mxGeometry>
        </mxCell>
        <mxCell id="Hg2dmBB14RRElqbrXrDV-78" value="1" style="endArrow=open;html=1;endSize=12;startArrow=diamondThin;startSize=14;startFill=1;align=left;verticalAlign=bottom;rounded=0;exitX=-0.023;exitY=0.808;exitDx=0;exitDy=0;exitPerimeter=0;entryX=1;entryY=0.5;entryDx=0;entryDy=0;" edge="1" parent="1" source="Hg2dmBB14RRElqbrXrDV-6" target="Hg2dmBB14RRElqbrXrDV-38">
          <mxGeometry x="-1" y="3" relative="1" as="geometry">
            <mxPoint x="335" y="479" as="sourcePoint" />
            <mxPoint x="512" y="493" as="targetPoint" />
          </mxGeometry>
        </mxCell>
        <mxCell id="Hg2dmBB14RRElqbrXrDV-79" value="1" style="endArrow=open;html=1;endSize=12;startArrow=diamondThin;startSize=14;startFill=1;align=left;verticalAlign=bottom;rounded=0;entryX=1;entryY=0.5;entryDx=0;entryDy=0;exitX=0;exitY=0.5;exitDx=0;exitDy=0;" edge="1" parent="1" source="Hg2dmBB14RRElqbrXrDV-10" target="Hg2dmBB14RRElqbrXrDV-30">
          <mxGeometry x="-0.8346" y="-7" relative="1" as="geometry">
            <mxPoint x="192" y="466" as="sourcePoint" />
            <mxPoint x="-1" y="460" as="targetPoint" />
            <mxPoint as="offset" />
          </mxGeometry>
        </mxCell>
        <mxCell id="Hg2dmBB14RRElqbrXrDV-80" value="1" style="endArrow=open;html=1;endSize=12;startArrow=diamondThin;startSize=14;startFill=1;align=left;verticalAlign=bottom;rounded=0;" edge="1" parent="1" source="Hg2dmBB14RRElqbrXrDV-14" target="Hg2dmBB14RRElqbrXrDV-34">
          <mxGeometry x="-0.7825" y="-1" relative="1" as="geometry">
            <mxPoint x="196" y="590.5" as="sourcePoint" />
            <mxPoint y="589.5" as="targetPoint" />
            <mxPoint x="1" as="offset" />
          </mxGeometry>
        </mxCell>
        <mxCell id="Hg2dmBB14RRElqbrXrDV-81" value="1" style="endArrow=open;html=1;endSize=12;startArrow=diamondThin;startSize=14;startFill=1;align=left;verticalAlign=bottom;rounded=0;" edge="1" parent="1" source="Hg2dmBB14RRElqbrXrDV-5" target="Hg2dmBB14RRElqbrXrDV-12">
          <mxGeometry x="-0.8162" y="-10" relative="1" as="geometry">
            <mxPoint x="280" y="410" as="sourcePoint" />
            <mxPoint x="270" y="300" as="targetPoint" />
            <mxPoint as="offset" />
          </mxGeometry>
        </mxCell>
        <mxCell id="Hg2dmBB14RRElqbrXrDV-83" value="1" style="endArrow=open;html=1;endSize=12;startArrow=diamondThin;startSize=14;startFill=1;align=left;verticalAlign=bottom;rounded=0;entryX=0.5;entryY=0;entryDx=0;entryDy=0;" edge="1" parent="1" source="Hg2dmBB14RRElqbrXrDV-8" target="Hg2dmBB14RRElqbrXrDV-13">
          <mxGeometry x="-0.403" y="6" relative="1" as="geometry">
            <mxPoint x="240" y="440" as="sourcePoint" />
            <mxPoint x="400" y="440" as="targetPoint" />
            <mxPoint as="offset" />
          </mxGeometry>
        </mxCell>
      </root>
    </mxGraphModel>
  </diagram>
</mxfile>
